<?xml version="1.0" encoding="utf-8"?>
<!-- Generator: Adobe Illustrator 19.0.0, SVG Export Plug-In . SVG Version: 6.00 Build 0)  -->
<svg version="1.1" id="layer" xmlns="http://www.w3.org/2000/svg" xmlns:xlink="http://www.w3.org/1999/xlink" x="0px" y="0px"
	 viewBox="-153 -46 652 652" style="enable-background:new -153 -46 652 652;" xml:space="preserve">
<path d="M24.8,205.8H-89.4c-27.7,0-37.5,16.2-37.5,30.1v117.7h39.5V311H22.8v42.6h39.5V235.9C62.3,222,52.5,205.8,24.8,205.8z
	 M-87.1,239.9c0.4-1.3,2.4-3.6,3.3-3.6H19.3c0.8,0,2.9,2.3,3.3,3.6v40.9H-87.1V239.9z M201.5,276.1l61.3-58.8l12-11.6h-16.7h-28.3
	h-2.7l-1.9,1.9l-47.8,45.5l-47.8-45.5l-1.9-1.9H125H96.6H79.9L92,217.3l61.3,58.8L84.1,342L72,353.6h16.8h29.2h2.7l1.9-1.9
	l54.8-52.5l54.8,52.5l1.9,1.9h2.7H266h16.8L270.7,342L201.5,276.1z M466.5,205.8H336.8c-18.9,0-33.3,4.6-42.7,13.6
	c-7.6,7.3-10.3,16.2-10.3,22.1v77.1c0,5.9,2.7,14.7,10.4,21.9c9.4,8.8,23.7,13.2,42.6,13.2h136.4v-30.3h-134
	c-5.5,0-9.6-1.3-12.2-3.9c-3.3-3.4-3.2-8.2-3.2-8.3v-15.4h113c12,0,18.8-5.9,22.3-10.8c4.1-5.6,5.2-11.7,5.2-14.1v-6.7H323.8v-15.4
	c0-0.5,0.1-5.3,3.4-8.6c2.5-2.6,6.6-3.9,12-3.9h134v-30.5H466.5z"/>
</svg>
