<?xml version="1.0" encoding="utf-8"?>
<!-- Generator: Adobe Illustrator 16.0.0, SVG Export Plug-In . SVG Version: 6.00 Build 0)  -->
<!DOCTYPE svg PUBLIC "-//W3C//DTD SVG 1.1//EN" "http://www.w3.org/Graphics/SVG/1.1/DTD/svg11.dtd">
<svg version="1.1" id="Layer_1" xmlns="http://www.w3.org/2000/svg" xmlns:xlink="http://www.w3.org/1999/xlink" x="0px" y="0px"
	 width="1390px" height="435px" viewBox="0 0 1390 435" enable-background="new 0 0 1390 435" xml:space="preserve">
<g>
	<polygon points="794.217,427.117 616.673,427.117 616.673,91.434 798.692,91.434 798.692,92.921 774.82,124.253 659.94,125.748 
		659.94,224.214 789.74,224.214 789.74,227.191 773.326,257.033 659.94,257.033 659.94,395.788 810.625,395.788 810.625,397.278 	
		"/>
	<g>
		<path d="M1343.248,428.607l-117.859-179.03c49.229,1.487,85.041-7.465,102.938-25.363c14.921-14.918,17.913-34.317,17.913-52.216
			c0-38.791-22.386-53.709-65.652-53.709h-68.63v308.828h-43.267V91.434h116.375c35.805,0,67.137,10.441,85.041,29.836
			c11.932,13.428,19.394,28.349,19.394,46.253c0,64.147-41.776,89.511-107.418,95.485l107.418,165.6H1343.248z"/>
		<path d="M343.647,373.408c-14.918,7.459-47.74,28.343-114.879,28.343c-88.024,0-173.067-67.137-173.067-183.506
			c0-107.418,76.089-183.506,171.577-183.506c79.072,0,110.404,28.343,113.387,29.842l29.839-19.4
			c-22.38-16.414-67.137-44.757-143.226-44.757C88.528,1.914,0.499,98.896,0.499,215.259c0,132.784,91.01,219.317,226.779,219.317
			c38.791,0,73.103-7.459,104.432-20.89c13.434-5.964,23.873-11.936,35.808-20.884L343.647,373.408z"/>
	</g>
	<polygon points="446.592,89.938 448.085,89.938 448.085,395.788 583.852,395.788 585.344,397.278 568.931,427.117 404.818,427.117 
		404.818,106.349 	"/>
	<g>
		<path d="M821.072,428.607L985.185,80.985v-1.49h4.474l159.639,346.129l1.493,2.983h-47.74v-1.49
			c-13.428-26.855-19.394-44.76-122.339-265.566L928.49,282.401h80.562l14.921,29.842l1.496,2.978H912.082
			c-2.986,8.952-44.763,95.482-52.222,111.896L821.072,428.607z"/>
	</g>
	<polygon points="794.217,427.117 616.673,427.117 616.673,91.434 798.692,91.434 798.692,92.921 774.82,124.253 659.94,125.748 
		659.94,224.214 789.74,224.214 789.74,227.191 773.326,257.033 659.94,257.033 659.94,395.788 810.625,395.788 810.625,397.278 	
		"/>
	<g>
		<path d="M1343.248,428.607l-117.859-179.03c49.229,1.487,85.041-7.465,102.938-25.363c14.921-14.918,17.913-34.317,17.913-52.216
			c0-38.791-22.386-53.709-65.652-53.709h-68.63v308.828h-43.267V91.434h116.375c35.805,0,67.137,10.441,85.041,29.836
			c11.932,13.428,19.394,28.349,19.394,46.253c0,64.147-41.776,89.511-107.418,95.485l107.418,165.6H1343.248z"/>
		<path d="M343.647,373.408c-14.918,7.459-47.74,28.343-114.879,28.343c-88.024,0-173.067-67.137-173.067-183.506
			c0-107.418,76.089-183.506,171.577-183.506c79.072,0,110.404,28.343,113.387,29.842l29.839-19.4
			c-22.38-16.414-67.137-44.757-143.226-44.757C88.528,1.914,0.499,98.896,0.499,215.259c0,132.784,91.01,219.317,226.779,219.317
			c38.791,0,73.103-7.459,104.432-20.89c13.434-5.964,23.873-11.936,35.808-20.884L343.647,373.408z"/>
	</g>
	<polygon points="446.592,89.938 448.085,89.938 448.085,395.788 583.852,395.788 585.344,397.278 568.931,427.117 404.818,427.117 
		404.818,106.349 	"/>
	<g>
		<path d="M821.072,428.607L985.185,80.985v-1.49h4.474l159.639,346.129l1.493,2.983h-47.74v-1.49
			c-13.428-26.855-19.394-44.76-122.339-265.566L928.49,282.401h80.562l14.921,29.842l1.496,2.978H912.082
			c-2.986,8.952-44.763,95.482-52.222,111.896L821.072,428.607z"/>
	</g>
</g>
</svg>
