<?xml version="1.0" encoding="utf-8"?>
<!-- Generator: Adobe Illustrator 26.2.1, SVG Export Plug-In . SVG Version: 6.00 Build 0)  -->
<svg version="1.1" id="Layer_1" xmlns="http://www.w3.org/2000/svg" xmlns:xlink="http://www.w3.org/1999/xlink" x="0px" y="0px"
	 viewBox="0 0 283.46 283.46" style="enable-background:new 0 0 283.46 283.46;" xml:space="preserve">
<style type="text/css">
	.st0{fill:#231F20;}
	.st1{fill-rule:evenodd;clip-rule:evenodd;fill:#231F20;}
	.st2{clip-path:url(#SVGID_00000029763323197462183380000010252212883706312833_);fill:#231F20;}
</style>
<g>
	<g>
		<g>
			<path class="st0" d="M83.91,109.11c-0.64,1.69-1.21,3.22-1.8,4.75c-1.72,4.51-3.42,9.03-5.22,13.51
				c-0.29,0.71-0.92,1.45-1.59,1.82c-4.98,2.76-10.22,4.76-16.03,4.66c-3.7-0.06-7.3-0.69-10.61-2.46
				c-5.58-2.98-8.01-7.93-8.26-13.96c-0.61-14.47,6.17-25.18,17.64-33.24c4.44-3.12,9.43-5.09,14.94-5.44
				c5.98-0.38,11.61,1.08,17.13,3.2c0.16,0.06,0.29,0.19,0.55,0.38c-0.99,2.66-1.98,5.32-3.04,8.17c-0.37-0.33-0.66-0.51-0.85-0.77
				c-3.82-4.82-8.97-6.56-14.87-6.03c-12.22,1.09-20.67,8.57-23.87,21.02c-1.44,5.62-1.63,11.24,1.23,16.59
				c2.47,4.61,6.41,6.95,11.54,7.4c2.8,0.25,5.52-0.17,8.16-1.16c1.12-0.42,1.85-1.02,2.27-2.21c1-2.82,2.13-5.6,3.25-8.37
				c1.01-2.5,1.65-5.01,0.55-7.83C78.01,109.11,80.86,109.11,83.91,109.11z"/>
			<path class="st0" d="M213.67,155.74c2.42-0.47,4.85-0.95,7.61-1.49c-0.26,0.7-0.39,1.13-0.57,1.54
				c-2.84,6.47-5.7,12.94-7.13,19.9c-0.26,1.25-0.29,2.58-0.24,3.86c0.06,1.58,0.76,2.16,2.31,2.08c2.92-0.15,5.27-1.59,7.41-3.41
				c3.88-3.3,6.67-7.46,9.01-11.91c1.74-3.32,3.22-6.78,4.76-10.2c0.32-0.71,0.67-1.06,1.47-1.03c1.5,0.05,3,0.01,4.79,0.01
				c-0.72,1.89-1.33,3.5-1.95,5.11c-3.52,9.09-6.95,18.21-10.61,27.24c-1.3,3.21-3.04,6.27-4.83,9.25c-2.05,3.41-5.14,5.54-9,6.76
				c-5.17,1.64-10.37,1.52-15.63,0.98c-0.06-1.99,0.15-2.15,1.92-2.18c2.46-0.03,4.91-0.1,7.37-0.25c5.71-0.34,9.67-3.42,11.99-8.41
				c2.46-5.3,4.52-10.79,6.74-16.2c0.3-0.73,0.51-1.49,0.72-2.11c-2.64,2.33-5.27,4.8-8.07,7.06c-2.7,2.17-5.74,3.77-9.23,4.37
				c-3.55,0.61-6.05-1.28-5.6-4.83c0.41-3.21,1.35-6.37,2.33-9.47c1.17-3.7,2.63-7.32,3.98-10.96
				C214.1,159.04,214.13,158.85,213.67,155.74z"/>
			<path class="st0" d="M181.39,99.97c-9.24,10.14-16.61,21.48-24.96,32.05c-0.26,0.33-0.55,0.65-1.15,0.9
				c-0.45-7.68-0.91-15.36-1.36-23.04c-0.09-0.04-0.19-0.09-0.28-0.13c-5.86,7.76-11.72,15.53-17.57,23.29
				c-0.12-0.04-0.25-0.08-0.37-0.12c-0.17-2.56-0.36-5.11-0.51-7.67c-0.39-6.61-0.7-13.22-1.19-19.81
				c-0.13-1.78-0.78-3.52-1.24-5.45c1.86,0,3.89-0.04,5.91,0.05c0.25,0.01,0.64,0.67,0.67,1.05c0.28,4.01,0.51,8.03,0.75,12.05
				c0.16,2.58,0.33,5.17,0.51,8.14c0.54-0.65,0.88-1.02,1.18-1.42c4.74-6.22,9.49-12.44,14.23-18.66c0.14-0.18,0.23-0.45,0.41-0.52
				c0.66-0.26,1.34-0.57,2.03-0.59c0.2-0.01,0.57,0.89,0.6,1.39c0.39,6.07,0.73,12.14,1.09,18.21c0.02,0.4,0.07,0.79,0.13,1.52
				c0.49-0.57,0.84-0.93,1.14-1.33c4.69-6.15,9.39-12.29,14.03-18.47c0.77-1.02,1.56-1.6,2.89-1.44
				C179.32,100.07,180.35,99.97,181.39,99.97z"/>
			<path class="st0" d="M200.63,113.23c1.34-0.72,2.64-1.57,4.04-2.13c3.12-1.24,6.43-1.02,9.68-0.81c5.07,0.34,9.91-0.1,14.09-3.41
				c-2.48,4.94-7.14,5.91-12.02,6.42c0.78,7.17-2.6,12.05-8.2,15.67c-5.78,3.74-12.08,5.51-18.99,4.65
				c-2.98-0.37-5.75-1.36-8.12-3.24c-5.2-4.13-5.83-10.48-1.64-16.22c3.15-4.32,7.52-6.94,12.39-8.81c2.41-0.92,4.91-1.6,7.51-2.44
				c-0.11-0.25-0.23-0.61-0.4-0.94c-1.88-3.68-1.82-7.3,0.28-10.87c4.13-7.03,14.89-10.01,21.82-6.06c3.97,2.26,4.89,7.67,1.8,10.79
				c-0.48,0.49-1.16,0.79-1.74,1.17c-0.07-0.1-0.14-0.2-0.21-0.3c0.43-0.56,0.92-1.08,1.28-1.69c1.79-3.02,0.47-6.98-2.78-8.48
				c-6.94-3.2-15.7,1.23-17.15,8.68c-0.45,2.31,0.07,4.46,1.28,6.42c0.24,0.39,0.9,0.63,1.41,0.75c1.38,0.32,2.82,0.44,4.18,0.83
				c1.08,0.31,1.97,1.07,1.73,2.37c-0.24,1.32-1.39,1.39-2.43,1.37c-2.27-0.03-4.39-0.57-6.4-1.71c-0.65-0.37-1.64-0.42-2.4-0.25
				c-5.5,1.26-10.37,3.71-13.96,8.18c-2.45,3.04-3.56,6.61-2.96,10.54c0.69,4.45,3.49,7.23,7.93,7.89
				c7.84,1.17,14.23-1.64,19.39-7.41c1.89-2.11,2.75-4.7,2.12-7.6c-0.68-3.16-3.26-5.02-6.43-4.46c-1.64,0.29-3.21,0.96-4.81,1.46
				C200.81,113.47,200.72,113.35,200.63,113.23z"/>
			<path class="st0" d="M102.95,143.12c2.83,0,5.53,0,8.52,0c-6.41,16.46-12.77,32.79-19.26,49.45c1.49,0,2.68,0,3.88,0
				c5.46,0,10.92-0.05,16.37,0.03c2.49,0.04,4.78-0.48,6.96-1.62c0.3-0.16,0.63-0.28,1.23-0.21c-0.45,0.87-0.97,1.71-1.35,2.62
				c-0.96,2.32-2.58,2.98-5.11,2.96c-9.88-0.1-19.77,0.08-29.65,0.15c-0.39,0-0.78-0.04-1.16-0.06c-0.02-0.17-0.07-0.29-0.04-0.34
				c3.65-5.14,5.44-11.14,7.72-16.9c3.93-9.93,7.72-19.92,11.45-29.93c0.54-1.44,0.42-3.13,0.57-4.71
				C103.12,144.13,103.01,143.69,102.95,143.12z"/>
			<path class="st0" d="M129.49,155.47c7.71,0.02,12.28,5.6,11.08,13.09c-1.51,9.37-10.25,17.99-19.66,19.38
				c-8.5,1.25-14.43-4.92-12.83-13.35c1.69-8.91,9.73-17.05,18.68-18.86C127.76,155.52,128.8,155.53,129.49,155.47z M134.73,168.12
				c-0.04-0.71-0.04-1.43-0.12-2.14c-0.67-6.39-6.11-9.29-11.77-6.29c-5.99,3.19-10.15,12.03-8.71,18.65
				c0.72,3.31,2.37,5.93,5.97,6.63c2.63,0.51,4.96-0.45,7.01-1.99C132.04,179.26,134.35,174.18,134.73,168.12z"/>
			<path class="st0" d="M130.73,110.88c-0.07,3.66-1.62,7.46-4.13,10.88c-3.64,4.96-8.31,8.49-14.38,9.84
				c-3.15,0.7-6.34,0.67-9.24-1.03c-4.06-2.38-5.47-6.17-4.99-10.63c0.85-7.84,5.33-13.37,11.76-17.49
				c2.86-1.84,6.02-2.88,9.45-3.07C126,99.03,130.7,103.42,130.73,110.88z M124.76,112.06c-0.04-0.67-0.05-1.34-0.13-2.01
				c-0.77-6.78-6.19-9.57-12.13-6.24c-6.03,3.38-9.84,12.3-8.17,19.13c1.29,5.27,6.09,7.59,10.89,5.05
				C121.57,124.64,124.13,118.9,124.76,112.06z"/>
			<path class="st0" d="M189.63,177.58c0.56,0.39,1.16,0.81,1.84,1.29c-0.19,0.33-0.3,0.62-0.49,0.83
				c-4.15,4.41-9.06,7.52-15.24,7.8c-7.3,0.34-12.05-4.55-11.44-11.8c0.63-7.51,4.85-12.89,10.8-17.09
				c2.85-2.01,6.04-3.22,9.53-3.65c7.73-0.95,13.38,4.71,12.37,12.41c-0.14,1.08-0.79,1-1.51,1c-7.2,0-14.4,0-21.6,0.01
				c-2.44,0-2.44,0-3.05,2.45c-0.6,2.42-0.75,4.85-0.21,7.3c1.16,5.22,5.46,7.65,10.58,5.98c3.08-1.01,5.54-2.84,7.43-5.46
				c0.21-0.29,0.42-0.57,0.65-0.85C189.33,177.73,189.43,177.7,189.63,177.58z M190.64,165.41c0.19-3.05-2.02-6.26-4.87-7.21
				c-2.05-0.68-3.99-0.3-5.85,0.58c-2.98,1.41-5.17,3.64-6.86,6.63C179.07,165.41,184.86,165.41,190.64,165.41z"/>
			<path class="st0" d="M89.82,131.45c-2.61,0-4.92,0-7.47,0c0.57-1.54,1.06-2.95,1.6-4.35c5.23-13.55,10.47-27.1,15.68-40.66
				c0.35-0.9,0.42-1.9,0.67-2.84c0.09-0.34,0.27-0.85,0.51-0.92c2.05-0.58,4.12-1.08,6.56-1.69c-0.48,1.3-0.82,2.28-1.2,3.24
				c-5.31,13.62-10.63,27.23-15.92,40.85C89.49,127.07,88.5,129.07,89.82,131.45z"/>
			<path class="st0" d="M198.74,185.94c-2.62,0-4.93,0-7.45,0c0.56-1.5,1.05-2.88,1.57-4.24c5.24-13.59,10.49-27.17,15.73-40.76
				c0.24-0.62,0.6-1.3,0.54-1.92c-0.15-1.56,0.71-1.95,1.97-2.21c1.61-0.33,3.19-0.78,5.08-1.26c-0.19,0.68-0.28,1.13-0.45,1.55
				c-5.59,14.36-11.2,28.72-16.78,43.09C198.26,181.99,197.52,183.83,198.74,185.94z"/>
			<path class="st0" d="M151.38,176.94c1.18-1.44,2.36-2.88,3.53-4.33c4.32-5.36,8.65-10.7,12.93-16.1c0.74-0.93,1.49-1.43,2.7-1.3
				c0.83,0.09,1.67,0.02,2.48,0.02c-9.04,10.73-17.25,21.97-26.2,33.12c-0.14-1.05-0.27-1.76-0.33-2.47
				c-0.76-8.55-1.47-17.1-2.29-25.64c-0.14-1.4-0.76-2.75-1.21-4.29c1.77,0,3.71-0.05,5.65,0.06c0.25,0.01,0.63,0.77,0.68,1.2
				c0.44,4.67,0.83,9.35,1.23,14.02c0.16,1.87,0.33,3.73,0.5,5.6C151.15,176.86,151.26,176.9,151.38,176.94z"/>
		</g>
	</g>
</g>
</svg>
