<?xml version="1.0" encoding="UTF-8" standalone="no"?>
<svg
   xmlns:dc="http://purl.org/dc/elements/1.1/"
   xmlns:cc="http://creativecommons.org/ns#"
   xmlns:rdf="http://www.w3.org/1999/02/22-rdf-syntax-ns#"
   xmlns:svg="http://www.w3.org/2000/svg"
   xmlns="http://www.w3.org/2000/svg"
   viewBox="0 0 793.70135 1122.52"
   height="1122.52"
   width="793.70135"
   xml:space="preserve"
   id="svg2"
   version="1.1"><metadata
     id="metadata8"><rdf:RDF><cc:Work
         rdf:about=""><dc:format>image/svg+xml</dc:format><dc:type
           rdf:resource="http://purl.org/dc/dcmitype/StillImage" /></cc:Work></rdf:RDF></metadata><defs
     id="defs6"><clipPath
       id="clipPath18"
       clipPathUnits="userSpaceOnUse"><path
         id="path16"
         d="M 0,841.89 H 595.276 V 0 H 0 Z" /></clipPath></defs><g
     transform="matrix(1.3333333,0,0,-1.3333333,0,1122.52)"
     id="g10"><g
       id="g12"><g
         clip-path="url(#clipPath18)"
         id="g14"><g
           transform="translate(198.0229,423.1783)"
           id="g20"><path
             id="path22"
             style="fill:#1a3576;fill-opacity:1;fill-rule:nonzero;stroke:none"
             d="m 0,0 c 0.011,11.292 2.474,20.29 4.737,29.314 2.93,11.684 5.951,23.344 8.872,35.029 0.34,1.356 1.251,3.44 -0.208,4.001 -1.155,0.445 -1.875,-1.762 -2.51,-2.97 -13.743,-26.119 -27.054,-52.465 -41.218,-78.362 -1.554,-2.843 -3.243,-5.615 -4.925,-8.387 -1.181,-1.945 -2.796,-3.516 -4.646,-4.82 -6.866,-4.839 -15.051,-2.061 -17.504,5.995 -1.508,4.953 -2.009,10.105 -2.512,15.228 -2.139,21.779 -2.995,43.632 -3.639,65.496 -0.027,0.914 -0.045,1.844 -0.233,2.73 -0.172,0.808 0.34,2.165 -0.895,2.263 -1.029,0.082 -1.282,-1.207 -1.561,-2.019 -3.581,-10.455 -7.107,-20.929 -10.662,-31.393 -6.495,-19.117 -12.674,-38.349 -20.483,-56.991 -1.154,-2.755 -2.44,-5.476 -3.92,-8.068 -4.14,-7.25 -14.398,-9.861 -21.617,-5.619 -3.91,2.298 -5.718,6.376 -4.536,10.883 4.827,18.42 10.81,36.484 17.123,54.436 7.477,21.258 15.553,42.278 25.919,62.339 4.092,7.918 8.506,15.653 14.388,22.411 3.587,4.122 7.497,7.777 13.445,8.211 6.149,0.448 10.626,-2.029 13.689,-7.255 3.395,-5.792 4.733,-12.185 5.438,-18.765 1.628,-15.214 2.685,-30.473 3.629,-45.742 0.083,-1.351 -0.496,-3.447 1.373,-3.863 1.916,-0.426 2.157,1.759 2.828,2.949 12.043,21.366 23.052,43.304 35.597,64.393 1.952,3.282 4.031,6.523 6.374,9.533 5.545,7.121 13.025,9.605 21.721,7.871 7.624,-1.519 12.349,-7.474 13.378,-15.494 C 48.745,103.189 46.547,93.459 44.118,83.787 40.112,67.835 35.565,52.018 32.699,35.795 30.756,24.8 29.34,13.764 29.943,2.564 c 0.251,-4.662 1.011,-9.246 2.524,-13.684 1.354,-3.968 3.61,-7.319 7.035,-9.757 2.748,-1.956 5.502,-3.965 4.257,-7.849 -1.265,-3.948 -4.406,-6.124 -8.404,-6.467 C 24.222,-36.146 9.746,-31.635 3.528,-17.116 0.93,-11.048 0.063,-4.662 0,0" /></g><g
           transform="translate(376.9365,267.0958)"
           id="g24"><path
             id="path26"
             style="fill:#1a3576;fill-opacity:1;fill-rule:nonzero;stroke:none"
             d="m 0,0 c -25.568,0.294 -46.938,6.471 -65.096,21.605 -19.102,15.923 -30.252,36.375 -33.326,61.08 -0.76,6.104 -0.78,12.288 0.831,18.336 0.714,2.679 1.715,5.245 3.768,7.203 2.973,2.833 5.71,2.22 6.948,-1.679 1.785,-5.621 2.415,-11.539 4.297,-17.15 7.665,-22.847 20.69,-41.521 43.084,-51.78 27.159,-12.441 53.895,-10.182 79.423,5.107 22.362,13.394 36.634,33.381 45.633,57.468 2.038,5.456 3.633,11.046 5.086,16.68 0.457,1.773 0.964,3.533 1.863,5.143 1.593,2.856 4.144,3.312 6.608,1.133 2.512,-2.218 3.428,-5.272 4.003,-8.399 2.044,-11.108 0.911,-22.048 -2.225,-32.79 C 87.835,37.209 58.024,10.688 12.661,1.269 7.784,0.256 2.781,-0.121 0,0" /></g><g
           transform="translate(390.1172,425.8649)"
           id="g28"><path
             id="path30"
             style="fill:#1a3576;fill-opacity:1;fill-rule:nonzero;stroke:none"
             d="m 0,0 c -0.064,11.055 2.389,21.788 4.291,32.576 3.448,19.549 7.117,39.059 10.687,58.587 0.576,3.148 0.165,3.611 -3.107,4.28 -6.382,1.304 -12.673,2.928 -17.91,7.081 -3.663,2.905 -6.19,6.472 -5.924,11.476 0.314,5.9 4.86,9.715 10.678,8.572 5.788,-1.136 11.565,-2.286 17.422,-3.027 3.861,-0.488 4.2,-0.362 5.098,3.461 1.027,4.366 1.893,8.768 2.926,13.131 2.238,9.448 9.978,14.51 18.705,12.299 4.963,-1.258 7.675,-5.226 6.876,-10.264 -0.767,-4.839 -1.649,-9.66 -2.51,-14.484 -0.545,-3.061 0.261,-3.998 3.229,-3.257 4.43,1.106 8.81,2.409 13.209,3.642 1.602,0.449 3.2,0.895 4.883,0.926 3.789,0.067 5.755,-1.695 5.91,-5.503 0.179,-4.39 -1.535,-8.112 -4.373,-11.349 -5.557,-6.337 -13.022,-9.296 -20.815,-11.656 -0.238,-0.073 -0.486,-0.153 -0.73,-0.157 -5.485,-0.071 -6.739,-3.505 -7.571,-8.277 -4.211,-24.14 -8.457,-48.272 -12.26,-72.48 -1.303,-8.292 -2.476,-16.6 -2.18,-25.053 0.19,-5.401 1.725,-10.101 5.762,-13.857 1.906,-1.772 1.809,-3.253 -0.412,-4.836 -3.806,-2.709 -8.188,-2.714 -12.481,-1.945 C 9.495,-28.339 2.149,-20.17 0.584,-9.698 0.102,-6.472 0.013,-3.243 0,0" /></g><g
           transform="translate(358.9014,340.1212)"
           id="g32"><path
             id="path34"
             style="fill:#1a3576;fill-opacity:1;fill-rule:nonzero;stroke:none"
             d="m 0,0 c -2.837,-0.208 -5.649,-0.014 -8.415,0.666 -10.813,2.658 -17.493,11.074 -18.772,22.824 -0.927,8.531 0.703,16.746 2.228,24.976 6.962,37.573 14.782,74.97 23.324,112.215 0.854,3.723 1.764,7.439 2.819,11.109 2.186,7.603 10.153,9.952 16.127,4.712 5.159,-4.525 6.101,-10.649 5.175,-16.914 C 20.812,148.254 18.661,136.989 16.668,125.703 11.686,97.482 6.666,69.268 2.517,40.908 2.135,38.298 1.768,35.663 2.313,32.973 c 1.011,-4.977 4.596,-7.565 9.592,-6.79 4.635,0.719 8.419,2.969 11.586,6.338 1.375,1.463 2.788,2.878 4.605,3.773 2.041,1.005 4.217,1.402 6.135,-0.094 2.243,-1.749 2.975,-4.327 2.231,-6.954 C 32.47,15.161 24.01,5.218 9.623,0.975 8.037,0.506 6.38,0.2 4.734,0.034 3.171,-0.124 1.579,0 0,0" /></g><g
           transform="translate(497.7041,458.2198)"
           id="g36"><path
             id="path38"
             style="fill:#1a3576;fill-opacity:1;fill-rule:nonzero;stroke:none"
             d="m 0,0 c -1.797,-6.705 -5.098,-12.637 -10.295,-17.36 -4.278,-3.894 -9.122,-5.861 -14.858,-3.579 -5.752,2.286 -7.704,7.204 -8.418,12.841 -0.159,1.233 -0.125,2.491 -0.195,4.004 0.195,9.277 3.645,17.405 10.6,23.95 2.971,2.791 6.445,4.659 10.67,4.828 4.928,0.19 8.537,-1.957 10.773,-6.251 C 1.344,12.557 1.683,6.301 0,0 m 26.746,14.993 c -1.707,10.205 -5.432,19.472 -13.864,25.978 -10.914,8.417 -23.302,9.161 -35.998,5.312 -21.899,-6.64 -37.072,-27.79 -37.76,-52.359 0.055,-0.764 0.149,-1.923 0.22,-3.086 1.537,-24.479 24.289,-40.811 48.099,-34.804 23.411,5.902 43.772,32.328 39.303,58.959" /></g><g
           transform="translate(297.0508,438.5533)"
           id="g40"><path
             id="path42"
             style="fill:#1a3576;fill-opacity:1;fill-rule:nonzero;stroke:none"
             d="m 0,0 c -3.954,-3.37 -8.603,-4.663 -13.695,-2.531 -5.582,2.336 -7.794,7.11 -8.318,12.641 -1.084,11.484 2.581,21.285 11.333,28.949 3.221,2.816 7.06,4.428 11.434,4.044 4.453,-0.39 7.469,-2.946 9.411,-6.86 1.697,-3.421 2.297,-7.08 2.297,-10.905 C 11.958,15.113 7.769,6.616 0,0 M 37.62,37.021 C 31.914,61.521 12.677,69.854 -7.229,65.825 -31.055,61.001 -49.094,38.03 -49.208,12.682 c -0.115,-26.322 22.662,-44.456 48.064,-38.26 23.776,5.802 45.559,33.432 38.764,62.599" /></g><g
           transform="translate(507.6211,520.9464)"
           id="g44"><path
             id="path46"
             style="fill:#1a3576;fill-opacity:1;fill-rule:nonzero;stroke:none"
             d="M 0,0 H 1.329 C 2.192,0 2.73,0.045 2.945,0.133 3.159,0.222 3.328,0.374 3.449,0.591 3.571,0.808 3.631,1.079 3.631,1.403 3.631,1.768 3.552,2.062 3.392,2.285 3.231,2.509 3.006,2.651 2.715,2.709 2.568,2.733 2.131,2.746 1.402,2.746 H 0 Z M -1.798,-6.244 V 4.577 H 1.985 C 2.938,4.577 3.628,4.479 4.06,4.285 4.491,4.09 4.836,3.745 5.095,3.249 5.354,2.751 5.484,2.184 5.484,1.544 5.484,0.732 5.287,0.061 4.895,-0.467 4.502,-0.998 3.915,-1.331 3.133,-1.468 3.521,-1.744 3.843,-2.046 4.097,-2.375 4.349,-2.706 4.69,-3.292 5.119,-4.132 l 1.088,-2.112 h -2.15 l -1.3,2.354 C 2.295,-3.048 1.979,-2.518 1.81,-2.298 1.64,-2.08 1.459,-1.93 1.269,-1.849 1.079,-1.767 0.777,-1.727 0.364,-1.727 H 0 v -4.517 z" /></g><g
           transform="translate(509.2812,527.5978)"
           id="g48"><path
             id="path50"
             style="fill:#1a3576;fill-opacity:1;fill-rule:nonzero;stroke:none"
             d="m 0,0 c -4.204,0 -7.625,-3.42 -7.625,-7.625 0,-4.206 3.421,-7.626 7.625,-7.626 4.205,0 7.625,3.42 7.625,7.626 C 7.625,-3.42 4.205,0 0,0 m 0,-16.639 c -4.97,0 -9.013,4.044 -9.013,9.014 0,4.969 4.043,9.013 9.013,9.013 4.97,0 9.013,-4.044 9.013,-9.013 0,-4.97 -4.043,-9.014 -9.013,-9.014" /></g></g></g></g></svg>