<?xml version="1.0" encoding="UTF-8" standalone="no"?>
<!-- Created with Inkscape (http://www.inkscape.org/) -->
<svg xmlns:dc="http://purl.org/dc/elements/1.1/" xmlns:cc="http://creativecommons.org/ns#" xmlns:rdf="http://www.w3.org/1999/02/22-rdf-syntax-ns#" xmlns:svg="http://www.w3.org/2000/svg" xmlns="http://www.w3.org/2000/svg" xmlns:sodipodi="http://sodipodi.sourceforge.net/DTD/sodipodi-0.dtd" xmlns:inkscape="http://www.inkscape.org/namespaces/inkscape" version="1.1" id="svg815" width="1189.5928" height="359.74316" viewBox="0 0 1189.5928 359.74316" sodipodi:docname="Pepsodent.svg" inkscape:version="0.92.4 (5da689c313, 2019-01-14)">
  <metadata id="metadata821">
    <rdf:RDF>
      <cc:Work rdf:about="">
        <dc:format>image/svg+xml</dc:format>
        <dc:type rdf:resource="http://purl.org/dc/dcmitype/StillImage"/>
        <dc:title/>
      </cc:Work>
    </rdf:RDF>
  </metadata>
  <defs id="defs819"/>
  <sodipodi:namedview pagecolor="#ffffff" bordercolor="#666666" borderopacity="1" objecttolerance="10" gridtolerance="10" guidetolerance="10" inkscape:pageopacity="0" inkscape:pageshadow="2" inkscape:window-width="1366" inkscape:window-height="745" id="namedview817" showgrid="false" fit-margin-top="0" fit-margin-left="0" fit-margin-right="0" fit-margin-bottom="0" inkscape:zoom="0.36333363" inkscape:cx="600.50469" inkscape:cy="310.24497" inkscape:window-x="-8" inkscape:window-y="-8" inkscape:window-maximized="1" inkscape:current-layer="svg815"/>
  <path style="fill:#e70132;fill-opacity:1;stroke-width:0.31999999" d="m 888.31276,359.66133 c -1.056,-0.0639 -4.872,-0.33738 -8.48,-0.60757 -56.60333,-4.23931 -110.15875,-25.13642 -153.51568,-59.90118 -2.68163,-2.1502 -5.34563,-4.32595 -5.92,-4.835 -0.57437,-0.50905 -2.62832,-2.33073 -4.56432,-4.04818 -5.18784,-4.60217 -13.79494,-13.14477 -19.6833,-19.53582 -9.30956,-10.10428 -19.827,-24.15293 -27.58742,-36.8498 -4.12499,-6.74894 -10.16928,-17.77187 -10.16928,-18.54567 0,-0.42143 27.18176,0.14614 31.36,0.65482 7.13968,0.86923 11.19123,2.28726 14.55674,5.09478 2.0528,1.71247 2.86316,2.64481 5.64377,6.49325 26.72122,36.98271 66.35309,65.71815 112.10125,81.28002 20.1143,6.84216 40.6319,10.91379 63.69824,12.64061 6.7256,0.50352 26.0785,0.50432 32.96,0 33.95046,-2.48128 63.91763,-10.48472 93.12004,-24.86988 22.6591,-11.16197 43.1066,-25.74155 60.32,-43.00963 10.6421,-10.67599 18.3383,-19.9709 26.7593,-32.31806 3.4465,-5.05342 6.4496,-8.35618 8.8824,-9.76865 5.2872,-3.06972 12.6811,-3.9886 32.1398,-3.99415 l 10.0216,-0.003 -0.2215,0.72 c -0.4794,1.55857 -7.2632,14.77717 -10.2067,19.88843 -12.6244,21.92133 -27.5204,40.5475 -47.0549,58.83785 -27.2769,25.53959 -61.6745,45.86815 -98.40004,58.15311 -22.3337,7.47078 -45.35677,12.06848 -70.56,14.09081 -4.28627,0.34394 -31.19866,0.67376 -35.2,0.43139 z" id="path851" inkscape:connector-curvature="0"/>
  <path style="fill:#e70132;fill-opacity:1;stroke-width:0.31999999" d="m 1102.8728,182.62516 c 0,-3.07292 2.3219,-10.5339 4.7427,-15.23949 5.6961,-11.0723 15.2928,-17.24878 29.1473,-18.75933 4.5632,-0.49753 15.5874,-0.18177 24.67,0.70661 12.5098,1.22361 21.5801,0.98504 26.4666,-0.69612 1.6616,-0.57171 1.6934,-0.57103 1.6934,0.0363 0,0.34042 -0.4501,2.02467 -1.0002,3.74277 -3.617,11.29686 -10.4635,19.43087 -19.1867,22.79492 -7.6326,2.94341 -15.1517,3.43592 -31.9731,2.09425 -7.7495,-0.6181 -16.5863,-0.62122 -20.3723,-0.007 -4.9458,0.80216 -10.6626,3.19818 -12.9877,5.4434 l -1.2,1.15876 v -1.27488 z" id="path849" inkscape:connector-curvature="0"/>
  <path id="path880" style="fill:#041a70;fill-opacity:1;stroke-width:0.49089152" d="m 95.75541,79.008855 c 17.17978,-2.12933 25.07032,-9.974209 24.44365,-24.302262 -0.40204,-9.192506 -4.78506,-14.350067 -14.43555,-16.986498 -3.6028,-0.984253 -5.07793,-1.064474 -20.31888,-1.104992 l -16.43402,-0.04369 -4.28764,20.617442 c -2.3582,11.339594 -4.29594,21.004021 -4.30615,21.476504 -0.0172,0.800516 1.04457,0.85906 15.58021,0.85906 8.57931,0 17.47058,-0.232005 19.75838,-0.515569 z M 0.26754,180.52535 C 0.76221,178.48318 36.34468,0.8497136 36.34468,0.4224269 36.34468,0.1899897 53.9238,0 75.43029,0 c 32.96347,0 39.90281,0.1206464 44.30296,0.7702431 25.41532,3.7521048 38.79418,22.0251639 38.83443,53.0407969 0.0221,17.154602 -5.37045,31.161582 -16.82074,43.690005 -7.58103,8.294865 -21.31426,16.195115 -33.48666,19.263725 -9.95631,2.50996 -11.63815,2.65069 -34.46686,2.88424 -19.65501,0.20109 -21.72598,0.29873 -21.93942,1.03434 -0.12959,0.44676 -2.93347,14.34249 -6.23088,30.8794 l -5.99521,30.0671 H 19.81395 0 Z m 1030.63166,-4.90892 c 0.7481,-3.57737 2.726,-13.2418 4.3952,-21.4765 1.6694,-8.23471 5.2273,-25.66391 7.9064,-38.73156 2.6792,-13.06765 4.8713,-23.83658 4.8713,-23.930954 0,-0.09438 -4.1971,-0.171596 -9.3269,-0.171596 -5.1298,0 -9.327,-0.180643 -9.327,-0.401426 0,-0.220789 1.1134,-5.13584 2.4742,-10.922337 1.3608,-5.786501 2.7045,-11.57019 2.986,-12.852644 l 0.5119,-2.331735 h 9.2154 9.2153 l 1.0256,-5.031638 c 0.5641,-2.767401 2.3765,-11.548221 4.0276,-19.512935 1.6512,-7.964715 3.2401,-15.641031 3.5312,-17.058481 l 0.529,-2.57718 h 19.3225 c 12.1841,0 19.3224,0.176284 19.3224,0.477181 0,0.429795 -2.346,11.898405 -7.1402,34.905693 -0.9327,4.476121 -1.6959,8.286666 -1.6959,8.467879 0,0.181217 4.5327,0.329481 10.0727,0.329481 h 10.0726 l -0.2559,1.104506 c -0.1408,0.607478 -1.3708,6.185233 -2.7333,12.395011 -1.3626,6.209778 -2.5919,11.677082 -2.7319,12.149565 -0.2316,0.781818 -1.1563,0.85906 -10.2847,0.85906 -5.5166,0 -10.0304,0.165676 -10.0306,0.368169 -5e-4,0.376896 -7.815,39.055571 -14.4529,71.536321 -2.0403,9.98353 -3.7097,18.32255 -3.7097,18.53115 0,0.20861 -8.8088,0.37929 -19.5752,0.37929 H 1029.539 Z M 902.34801,126.0364 c 6.1736,-30.846401 11.46016,-57.244092 11.74797,-58.661541 l 0.52324,-2.577181 h 17.88274 c 10.69481,0 17.88274,0.183466 17.88274,0.456446 0,0.251042 -0.66271,3.395541 -1.47268,6.987777 -0.80997,3.592231 -1.47267,6.818881 -1.47267,7.170334 0,0.351449 1.37268,-0.828418 3.05045,-2.621925 12.20616,-13.048461 30.04987,-17.915307 46.52959,-12.690905 14.49011,4.593664 20.42311,18.308997 17.22291,39.814065 -0.9555,6.42079 -2.8066,15.75205 -10.791,54.39904 -4.3577,21.09215 -4.44385,21.50659 -4.72164,22.70373 l -0.2563,1.10451 h -19.39021 -19.39022 l 0.25247,-1.10451 c 0.13887,-0.60748 1.01339,-4.85983 1.94334,-9.44966 3.52671,-17.40585 9.70546,-47.34908 10.88925,-52.77083 1.58843,-7.27507 1.69397,-12.29857 0.31456,-14.97219 -1.99449,-3.865745 -5.1119,-5.697045 -10.26734,-6.031495 -9.83148,-0.63779 -16.71265,5.088775 -20.24996,16.852255 -0.79397,2.64035 -10.19984,47.95922 -13.41881,64.6538 l -0.54426,2.82263 h -18.74444 -18.74445 z m -195.60063,25.9163 c 8.99652,-4.11874 15.8823,-19.99523 15.85511,-36.55697 -0.0177,-10.90243 -2.73996,-17.137815 -8.95686,-20.517142 -1.19743,-0.650888 -2.73745,-0.864755 -6.25224,-0.86824 -4.0416,-0.0039 -5.0389,0.171336 -7.47912,1.314975 -9.34991,4.381992 -15.11215,17.951257 -15.28244,35.988147 -0.074,7.83947 0.83913,11.85191 3.66981,16.12549 3.82625,5.77655 11.55588,7.66803 18.44574,4.51374 z m -31.00265,32.59935 c -17.67376,-2.77106 -29.08876,-15.80851 -32.42966,-37.03916 -1.43233,-9.10174 -0.59335,-24.08802 2.00165,-35.75533 2.84178,-12.776915 8.95686,-25.203702 16.39112,-33.309352 11.17701,-12.186377 25.53166,-17.571339 42.8373,-16.069894 12.34951,1.07145 20.16214,5.832292 24.51218,14.937098 0.77394,1.619942 1.40739,3.221475 1.40758,3.558963 2e-4,0.337488 0.17864,0.613615 0.3965,0.613615 0.2178,0 1.10195,-3.700095 1.96469,-8.222433 0.86274,-4.522338 3.22545,-16.94803 5.25043,-27.612646 2.02502,-10.664618 3.9178,-20.549946 4.20625,-21.967395 l 0.52442,-2.577181 h 19.35541 c 10.64548,0 19.35541,0.182018 19.35541,0.404485 0,0.403852 -5.45969,27.732912 -22.89174,114.58685 l -9.23667,46.02108 h -18.78911 c -15.40472,0 -18.78907,-0.11884 -18.78907,-0.65975 0,-0.36286 0.6627,-3.93175 1.47267,-7.93086 0.80997,-3.9991 1.47268,-7.62321 1.47263,-8.05357 0,-0.43036 -1.02228,1.02757 -2.2718,3.23984 -4.36182,7.72288 -9.70169,12.32107 -17.0411,14.67423 -3.27567,1.05024 -5.16575,1.31456 -10.38599,1.45246 -3.50988,0.0927 -7.70076,-0.0382 -9.3131,-0.29105 z m -235.15088,1.92996 c -14.70261,-2.13617 -26.4664,-8.7069 -32.87569,-18.3629 -3.79733,-5.72092 -6.32013,-14.62727 -6.05105,-21.36226 l 0.14631,-3.66198 18.4216,-0.12852 18.42159,-0.12852 0.54545,3.46401 c 1.16199,7.37957 3.65219,9.76844 11.31192,10.85167 6.86754,0.97119 11.88061,-0.70248 14.44125,-4.82138 0.94393,-1.51835 1.16498,-2.54278 1.16498,-5.3993 0,-3.24515 -0.11708,-3.64872 -1.47267,-5.07659 -2.84943,-3.00136 -5.90165,-3.98836 -21.15225,-6.84011 -4.34401,-0.8123 -9.42473,-1.94799 -11.29051,-2.52376 -15.38403,-4.74741 -22.64883,-16.2908 -20.87092,-33.162805 1.94495,-18.457192 11.72556,-30.792462 29.50544,-37.212155 7.13415,-2.575894 11.34122,-3.267555 21.61999,-3.554427 10.62466,-0.296523 15.85324,0.263329 23.68763,2.536343 16.82201,4.88064 26.36254,16.640138 26.36254,32.494029 v 4.58495 h -18.16299 -18.16298 v -2.715674 c 0,-6.211928 -3.66848,-9.573755 -11.31972,-10.373466 -8.86188,-0.926248 -16.05774,6.642474 -13.04268,13.71852 1.47204,3.454725 4.05586,4.785825 11.59922,5.975545 18.45909,2.91132 28.58358,6.73997 35.22117,13.31912 5.8394,5.78796 7.95288,11.72158 7.96874,22.37216 0.0191,12.7482 -3.89056,22.88118 -12.0183,31.14946 -7.61456,7.74625 -17.26662,12.50237 -29.66271,14.61651 -5.05893,0.86281 -19.10014,1.00216 -24.33536,0.24153 z m 137.206,-32.63589 c 6.33716,-3.44913 11.44862,-12.88072 14.20679,-26.21433 3.13488,-15.15446 0.5635,-29.400405 -6.0306,-33.410511 -4.10312,-2.495261 -9.90717,-2.226473 -14.22393,0.658722 -8.04615,5.377749 -14.18411,21.770419 -14.28518,38.151589 -0.0585,9.47287 1.66088,15.26085 5.69669,19.17749 3.81227,3.69969 9.64735,4.35233 14.63623,1.63704 z m -16.92766,33.61813 c -23.87343,-3.47653 -39.38864,-19.55904 -43.27788,-44.86027 -1.05306,-6.8506 -0.65387,-23.09565 0.73163,-29.77318 4.4107,-21.257513 15.80386,-37.524082 32.58184,-46.518604 12.90613,-6.918846 31.85101,-9.076113 47.0092,-5.35297 19.43395,4.77334 31.97299,19.154474 35.07473,40.227424 3.04397,20.68045 -2.1717,45.04025 -13.11632,61.25943 -3.00121,4.44759 -9.24835,11.03958 -13.59009,14.34026 -4.05417,3.08204 -12.89115,7.45258 -17.68765,8.74784 -8.32513,2.24814 -19.97315,3.059 -27.72546,1.93007 z m 294.0234,-82.16803 c -0.009,-4.3217 -0.17397,-5.26124 -1.37562,-7.854255 -2.55578,-5.515221 -6.54138,-8.43523 -13.11756,-9.610459 -9.19783,-1.64374 -18.40882,2.644688 -23.80755,11.084239 -1.60035,2.501755 -4.64157,9.750535 -4.64157,11.063235 0,0.30991 7.66586,0.43627 21.4765,0.35404 l 21.4765,-0.12788 -0.0108,-4.90892 z m -37.0736,83.19119 c -8.50361,-1.18951 -18.46468,-5.31623 -24.59911,-10.19102 -9.60312,-7.63125 -15.67883,-17.99289 -18.91385,-32.25617 -1.22213,-5.3882 -1.21584,-21.82871 0.0113,-28.9626 2.98579,-17.361055 9.16848,-29.920358 19.9594,-40.544866 18.61588,-18.328731 47.58118,-23.82837 68.94566,-13.090707 20.85759,10.48291 30.61009,36.880663 24.48523,66.276033 l -0.79269,3.80441 h -38.70946 -38.7094 v 2.59676 c 0,8.19963 4.80721,16.69994 11.22846,19.85458 2.56015,1.25776 3.19232,1.35552 8.65265,1.338 5.30909,-0.017 6.16761,-0.14687 8.69551,-1.31505 2.67521,-1.23628 7.66281,-5.61832 9.25144,-8.12813 l 0.70693,-1.11692 17.78161,0.13514 17.78161,0.13513 -2.15879,6.44755 c -2.49176,7.44218 -3.87215,10.34784 -7.23363,15.22672 -6.82698,9.90863 -17.88926,16.48598 -32.0615,19.06287 -5.19717,0.94498 -19.67311,1.37845 -24.32112,0.72827 z M 231.96495,105.28515 c 0,-4.55886 -0.11708,-5.15778 -1.59535,-8.159875 -3.15653,-6.410287 -8.20682,-9.376936 -16.07675,-9.443795 -8.27383,-0.07029 -14.50363,2.952742 -19.35114,9.390205 -2.23233,2.964515 -4.76528,8.315105 -5.70067,12.042065 l -0.33813,1.34724 21.53099,-0.12793 21.53105,-0.12792 z m -36.81687,83.19801 c -13.18245,-1.72568 -24.88344,-8.17172 -32.70888,-18.01928 -7.64868,-9.62505 -11.52368,-20.87422 -12.04874,-34.97783 -1.32865,-35.686985 15.43049,-63.192669 45.00307,-73.860724 14.86351,-5.36189 31.81684,-4.757775 44.42568,1.583056 11.35167,5.708617 20.24398,16.700567 23.99684,29.662901 3.34734,11.561707 3.60035,25.021477 0.71562,38.074027 l -0.56958,2.57718 h -38.8496 -38.84964 l 0.37214,3.80441 c 0.88209,9.01761 4.8777,15.51278 11.59771,18.85302 2.04113,1.01459 3.01245,1.1508 8.20589,1.1508 5.71069,0 5.99153,-0.0506 9.19022,-1.6559 3.0749,-1.54317 6.82286,-4.89389 8.73159,-7.80617 l 0.73207,-1.11692 17.78161,0.13514 17.78161,0.13513 -2.16243,6.45839 c -2.50565,7.48374 -3.35558,9.2867 -6.92584,14.69194 -9.04222,13.68982 -25.93483,21.00573 -47.93212,20.75865 -3.04804,-0.0342 -6.86727,-0.23575 -8.48722,-0.44782 z m 145.99634,-37.00439 c 8.67008,-4.44733 13.91688,-16.22092 15.01412,-33.6908 0.66717,-10.62254 -2.00613,-17.43969 -8.17987,-20.859505 -2.38726,-1.322386 -3.02841,-1.449581 -7.28125,-1.444564 -6.02113,0.0071 -8.5936,1.090643 -12.67153,5.337409 -6.66434,6.94021 -10.35187,19.26909 -9.79712,32.75574 0.57106,13.88367 5.51021,19.84907 16.08706,19.42961 3.38794,-0.13436 4.67201,-0.42166 6.82859,-1.52789 z m -80.34397,74.43412 c -3.90258,-0.13731 -4.0445,-0.1832 -3.79562,-1.22723 0.14221,-0.59652 7.3272,-36.42877 15.96669,-79.62722 8.6395,-43.19845 15.82973,-78.929219 15.97827,-79.401702 0.25134,-0.799235 1.6306,-0.85906 19.80483,-0.85906 h 19.53463 l -1.65018,8.186981 c -0.90761,4.50284 -1.65018,8.401373 -1.65018,8.66341 0,0.262038 1.15973,-1.415235 2.57718,-3.72728 3.4655,-5.652699 5.79532,-8.285939 9.65073,-10.907668 5.80538,-3.947725 12.46766,-5.48426 21.64361,-4.991695 18.84979,1.011851 30.29066,10.528509 35.20553,29.284394 1.31071,5.00188 1.35054,5.539195 1.34634,18.16299 -0.004,11.41594 -0.14299,13.78417 -1.13687,19.34302 -5.42895,30.36434 -21.08685,50.54705 -42.65934,54.98696 -10.8434,2.23173 -24.58227,0.75614 -31.218,-3.35289 -4.52062,-2.79931 -8.54068,-7.79116 -10.51092,-13.05189 -1.03195,-2.75533 -1.28618,-2.68452 -1.76269,0.49089 -0.14177,0.94497 -1.49167,8.12426 -2.99979,15.95398 -1.50807,7.82972 -3.85728,20.08973 -5.22044,27.24448 -1.36315,7.15474 -2.58498,13.46033 -2.71521,14.01242 -0.23274,0.98641 -0.51495,1.00342 -16.28558,0.98178 -8.82681,-0.0121 -17.87316,-0.0862 -20.10299,-0.16467 z" inkscape:connector-curvature="0"/>
</svg>